<svg xmlns="http://www.w3.org/2000/svg" width="506.875" height="505.844" viewBox="0 0 506.875 505.844">
  <defs>
    <style>
      .cls-1 {
        fill-rule: evenodd;
      }
    </style>
  </defs>
  <path id="Forma_1" data-name="Forma 1" class="cls-1" d="M256,3V69c-93.489-1.173-152.032,58.742-177,127-10.367,28.342-14.633,78.24-4,111,10.325,31.813,26.17,54.4,44,78,5.664,7.5,15.313,13.429,23,19,30.1,21.813,83.227,50.337,141,37,12.742-2.942,22.981-2.593,34-7,67.776-27.108,125.893-83.662,126-178h66c2.258,101.623-58.539,177.227-120,216-14.319,9.033-29.227,14.132-46,21-40.029,16.39-109,22.284-156,7-39.88-12.969-69.364-31.616-99-54-12.158-9.183-22.981-23.555-32-36-16.768-23.138-31.94-47.709-42-78-3.8-11.438-3.952-21.473-7-34C3.4,283.2.018,257.551,4,240c2.642-11.645.235-21.331,3-32,3.912-15.093,7.238-31.08,13-45C55.265,77.8,136.209,3.292,256,3Z" transform="translate(-2.188 -3)"/>
</svg>
